<svg width="169" height="165" viewBox="0 0 169 165" fill="none" xmlns="http://www.w3.org/2000/svg">
<rect width="168.408" height="164.747" rx="22.5" fill="white"/>
<path d="M86.0344 25.1275C86.6782 25.1275 87.3492 25.2674 87.883 25.5767L134.112 52.3706L134.308 52.4956C134.757 52.8088 135.142 53.2628 135.423 53.7515C135.744 54.31 135.959 54.9628 135.959 55.5806V109.167C135.959 109.784 135.744 110.437 135.423 110.996C135.142 111.484 134.757 111.938 134.308 112.252L134.112 112.377L87.883 139.17C87.3492 139.48 86.6782 139.62 86.0344 139.62C85.4712 139.62 84.8875 139.513 84.3928 139.279L84.1858 139.17L37.9573 112.377C37.4238 112.067 36.9679 111.554 36.6467 110.996C36.3254 110.437 36.1106 109.784 36.1106 109.167V55.5806C36.1106 54.9627 36.3253 54.3101 36.6467 53.7515C36.968 53.1932 37.4238 52.68 37.9573 52.3706L84.1858 25.5767L84.3928 25.4683C84.8875 25.2344 85.4713 25.1275 86.0344 25.1275ZM42.6467 105.459H42.6477V105.959C42.6477 106.359 42.7921 106.841 43.05 107.29C43.308 107.738 43.6516 108.103 43.9963 108.303L82.8625 130.83V107.071L65.0569 96.7515C64.5233 96.4422 64.0676 95.9281 63.7463 95.3697C63.425 94.8112 63.2102 94.1583 63.2102 93.5406V72.9986L42.6467 61.1255V105.459ZM108.99 72.9068V93.5406C108.99 94.1584 108.776 94.8112 108.454 95.3697C108.173 95.8583 107.789 96.3124 107.34 96.6255L107.144 96.7515L89.3948 107.038V130.722L128.076 108.303L128.088 108.295C128.429 108.094 128.769 107.733 129.024 107.29C129.282 106.841 129.426 106.359 129.426 105.959V61.0621L108.99 72.9068ZM69.7424 90.3326C69.7424 90.7331 69.8878 91.2153 70.1457 91.6636C70.4037 92.1119 70.7463 92.4784 71.091 92.6783L82.8615 99.4986V84.3414C82.8444 84.3321 82.8258 84.3247 82.8088 84.315L82.8078 84.314L69.7424 76.7701V90.3326ZM89.3918 84.2652C89.3919 84.272 89.3938 84.2788 89.3938 84.2857V99.4673L101.108 92.6792L101.237 92.5962C101.537 92.3861 101.827 92.0568 102.053 91.6646C102.311 91.2164 102.456 90.735 102.456 90.3345V76.6939L89.3918 84.2652ZM72.9641 71.0669L86.0569 78.6275L99.1682 71.0279L86.0998 63.4537L72.9641 71.0669ZM45.8098 55.3892L66.4182 67.2896L84.2492 56.9556L84.4563 56.8472C84.9509 56.6133 85.5347 56.5064 86.0979 56.5064C86.7417 56.5064 87.4127 56.6462 87.9465 56.9556L105.697 67.2447L126.205 55.358L86.0354 32.0757L45.8098 55.3892Z" fill="black" stroke="black"/>
</svg>
